<?xml version="1.0" encoding="UTF-8"?> <svg xmlns="http://www.w3.org/2000/svg" width="4211" height="794" viewBox="0 0 4211 794" fill="none"><path fill-rule="evenodd" clip-rule="evenodd" d="M2454.28 178.416V225.362H2694.17V178.416H2454.28ZM2454.28 281.819V328.765H2694.17V281.819H2454.28Z" fill="white"></path><path fill-rule="evenodd" clip-rule="evenodd" d="M1802.4 106.953L1961.89 331.536H1930.06V331.57H1674.73V331.536H1642.91L1802.4 106.953ZM1720.26 289.401L1802.4 173.734L1884.54 289.401H1720.26Z" fill="white"></path><path d="M3363.88 328.495H3313.5L3463.51 117.65L3613.59 328.569H3563.17L3463.51 189.521L3363.88 328.495Z" fill="white"></path><path fill-rule="evenodd" clip-rule="evenodd" d="M433.467 174.828H480.637L573.906 59.5942L667.21 174.89H714.414L573.906 0L433.467 174.828ZM433.467 331.326H480.637L573.906 216.092L667.21 331.388H714.414L573.906 156.498L433.467 331.326Z" fill="white"></path><path d="M2454.28 409.873H2694.14V450.407H2597.66V791.747H2550.43V450.407H2454.28V409.873Z" fill="white"></path><path d="M433.466 409.873H480.666V575.323L649.048 409.873H714.325L529.875 588.663L736.244 792.598H669.962L495.396 617.679L480.666 630.686V792.598H433.466V409.873Z" fill="white"></path><path d="M941.525 409.873C997.581 409.873 1044.03 430.196 1080.88 470.842C1114.38 507.915 1131.13 551.799 1131.13 602.495C1131.13 653.414 1113.38 697.968 1077.87 736.158C1042.58 774.124 997.134 793.107 941.525 793.107C885.692 793.107 840.022 774.124 804.512 736.158C769.226 697.968 751.583 653.414 751.583 602.495C751.583 552.022 768.333 508.25 801.832 471.177C838.682 430.308 885.246 409.873 941.525 409.873ZM941.525 455.767C902.665 455.767 869.278 470.172 841.362 498.982C813.445 527.791 799.487 562.63 799.487 603.5C799.487 629.853 805.852 654.419 818.582 677.199C831.312 699.978 848.508 717.621 870.171 730.128C891.834 742.411 915.619 748.552 941.525 748.552C967.431 748.552 991.216 742.411 1012.88 730.128C1034.54 717.621 1051.74 699.978 1064.47 677.199C1077.2 654.419 1083.56 629.853 1083.56 603.5C1083.56 562.63 1069.49 527.791 1041.35 498.982C1013.44 470.172 980.161 455.767 941.525 455.767Z" fill="white"></path><path fill-rule="evenodd" clip-rule="evenodd" d="M1538.45 470.989C1501.6 430.343 1455.15 410.02 1399.09 410.02C1342.81 410.02 1296.25 430.454 1259.4 471.324C1225.9 508.396 1209.15 552.169 1209.15 602.641C1209.15 653.56 1226.79 698.115 1262.08 736.304C1297.59 774.27 1343.26 793.253 1399.09 793.253C1454.7 793.253 1500.15 774.27 1535.44 736.304C1547.07 723.789 1556.8 710.59 1564.63 696.707L1523.92 673.867C1523.31 675.031 1522.68 676.19 1522.04 677.345C1509.31 700.125 1492.11 717.768 1470.45 730.274C1448.78 742.557 1425 748.699 1399.09 748.699C1373.19 748.699 1349.4 742.557 1327.74 730.274C1306.08 717.768 1288.88 700.125 1276.15 677.345C1263.42 654.565 1257.06 629.999 1257.06 603.646C1257.06 562.777 1271.01 527.938 1298.93 499.128C1326.85 470.318 1360.23 455.914 1399.09 455.914C1437.73 455.914 1471.01 470.318 1498.92 499.128C1508.35 508.779 1516.2 519.107 1522.46 530.111L1563.75 505.617C1556.78 493.48 1548.34 481.937 1538.45 470.989Z" fill="white"></path><path fill-rule="evenodd" clip-rule="evenodd" d="M2368.54 470.842C2331.69 430.196 2285.24 409.873 2229.18 409.873C2172.9 409.873 2126.34 430.308 2089.49 471.177C2055.99 508.25 2039.24 552.022 2039.24 602.495C2039.24 653.414 2056.88 697.968 2092.17 736.158C2127.68 774.124 2173.35 793.107 2229.18 793.107C2284.79 793.107 2330.24 774.124 2365.52 736.158C2377.16 723.642 2386.89 710.443 2394.71 696.561L2354.01 673.72C2353.4 674.884 2352.77 676.044 2352.12 677.199C2339.39 699.978 2322.2 717.621 2300.53 730.128C2278.87 742.411 2255.09 748.552 2229.18 748.552C2203.27 748.552 2179.49 742.411 2157.83 730.128C2136.16 717.621 2118.97 699.978 2106.24 677.199C2093.51 654.419 2087.14 629.853 2087.14 603.5C2087.14 562.63 2101.1 527.791 2129.02 498.982C2156.93 470.172 2190.32 455.767 2229.18 455.767C2267.82 455.767 2301.09 470.172 2329.01 498.982C2338.43 508.633 2346.28 518.96 2352.55 529.965L2393.84 505.471C2386.86 493.334 2378.43 481.791 2368.54 470.842Z" fill="white"></path><path fill-rule="evenodd" clip-rule="evenodd" d="M1642.91 409.873H1688.83V713.746L1915.07 409.908V409.873H1915.09H1960.99V792.598H1915.07V488.488L1689.05 792.032L1688.83 791.87V792.598H1642.91V409.873Z" fill="white"></path><path fill-rule="evenodd" clip-rule="evenodd" d="M3563.09 409.867L3613.42 409.867L3613.4 409.934L3613.48 409.934L3754.18 790.844L3704.53 790.844L3589.81 481.78L3488.47 790.492L3438.83 790.492L3438.97 790.047H3438.32L3337.38 482.011L3223.45 790.046L3173.8 790.047L3313.71 409.941L3364.04 409.941L3364.04 409.942L3364.1 409.942L3463.49 714.935L3563.09 409.867Z" fill="white"></path><path fill-rule="evenodd" clip-rule="evenodd" d="M4160.3 469.969C4123.64 429.526 4077.42 409.305 4021.64 409.305C3965.64 409.305 3919.31 429.637 3882.65 470.302C3849.31 507.189 3832.65 550.743 3832.65 600.963C3832.65 651.627 3850.2 695.959 3885.31 733.957C3920.64 771.733 3966.09 790.621 4021.64 790.621C4076.97 790.621 4122.19 771.733 4157.3 733.957C4159.13 731.991 4160.91 730.008 4162.64 728.009V792.6H4210.27V604.43C4210.29 603.278 4210.3 602.122 4210.3 600.963C4210.3 599.775 4210.29 598.59 4210.27 597.41V409.875H4162.64V472.603C4161.87 471.721 4161.09 470.843 4160.3 469.969ZM4162.64 591.379C4160.4 555.25 4146.51 524.113 4120.97 497.967C4093.19 469.302 4060.08 454.969 4021.64 454.969C3982.98 454.969 3949.75 469.302 3921.98 497.967C3894.2 526.633 3880.31 561.298 3880.31 601.963C3880.31 628.184 3886.65 652.627 3899.31 675.293C3911.98 697.959 3929.09 715.513 3950.64 727.957C3972.2 740.179 3995.86 746.29 4021.64 746.29C4047.42 746.29 4071.08 740.179 4092.64 727.957C4114.19 715.513 4131.3 697.959 4143.97 675.293C4154.98 655.589 4161.2 634.542 4162.64 612.152V591.379Z" fill="white"></path><path fill-rule="evenodd" clip-rule="evenodd" d="M165.534 409.85C109.478 409.85 63.0253 430.173 26.1759 470.819C16.2824 481.767 7.84985 493.31 0.878219 505.447L42.1622 529.941C48.431 518.937 56.2786 508.609 65.7052 498.958C93.6214 470.149 126.898 455.744 165.534 455.744C204.393 455.744 237.781 470.149 265.697 498.958C288.358 522.345 301.822 549.705 306.087 581.038H183.744V621.854H306.505C304.209 641.337 298.199 659.777 288.476 677.175C275.747 699.955 258.55 717.598 236.887 730.104C215.224 742.387 191.44 748.529 165.534 748.529C139.627 748.529 115.843 742.387 94.1798 730.104C72.5168 717.598 55.3204 699.955 42.5906 677.175C41.9453 676.02 41.3162 674.861 40.7035 673.697L0 696.537C7.8234 710.42 17.5537 723.619 29.1908 736.134C64.4769 774.1 109.924 793.083 165.534 793.083C221.366 793.083 267.037 774.1 302.546 736.134C337.832 697.945 355.475 653.391 355.475 602.471C355.475 551.999 338.726 508.226 305.226 471.154C268.377 430.284 221.813 409.85 165.534 409.85Z" fill="white"></path><path fill-rule="evenodd" clip-rule="evenodd" d="M3074.45 470.844C3037.6 430.198 2991.15 409.875 2935.1 409.875C2878.82 409.875 2832.25 430.31 2795.4 471.179C2761.9 508.252 2745.15 552.024 2745.15 602.497C2745.15 653.416 2762.8 697.97 2798.08 736.16C2833.59 774.126 2879.26 793.108 2935.1 793.108C2990.71 793.108 3036.15 774.126 3071.44 736.16C3083.77 722.893 3093.97 708.858 3102.02 694.055L3061.25 671.156C3060.23 673.185 3059.16 675.199 3058.04 677.201C3045.31 699.98 3028.11 717.623 3006.45 730.13C2984.79 742.413 2961 748.554 2935.1 748.554C2909.19 748.554 2885.41 742.413 2863.74 730.13C2842.08 717.623 2824.88 699.98 2812.15 677.201C2799.42 654.421 2793.06 629.855 2793.06 603.502C2793.06 602.823 2793.06 602.147 2793.07 601.472H3118.25L3124.7 601.471C3124.48 551.209 3107.73 507.667 3074.45 470.844ZM3071.37 560.656C3064.81 537.702 3052.66 517.145 3034.92 498.983C3007.01 470.174 2973.73 455.769 2935.1 455.769C2896.24 455.769 2862.85 470.174 2834.93 498.983C2817.33 517.145 2805.28 537.702 2798.78 560.656H3071.37Z" fill="white"></path></svg> 