<svg width="55" height="73" viewBox="0 0 55 73" fill="none" xmlns="http://www.w3.org/2000/svg">
<g clip-path="url(#clip0_2_188)">
<path d="M27.5323 -0.00045187H54.7055C54.9669 -0.00045187 54.9669 -0.000451867 54.9669 0.270861V56.6699C54.9669 56.9582 54.9669 56.9582 54.7055 56.9582H0.37542C0.0486226 56.9582 0.0976423 57.0091 0.0976423 56.6699C0.0976423 37.8815 0.0976423 19.0932 0.0976423 0.304775C0.0976423 -0.0513229 0.0649625 -0.00045187 0.35908 -0.00045187H27.5323ZM11.7153 43.4774H16.2251C18.2186 43.4774 20.212 43.4774 22.2055 43.4774C22.3362 43.4943 22.4669 43.4095 22.5159 43.2739C22.9408 42.4091 23.3656 41.5443 23.8068 40.6795C24.9342 38.4072 26.078 36.118 27.2055 33.8288C27.2382 33.7271 27.3525 33.6592 27.4669 33.6762C28.4963 33.6762 29.5257 33.6932 30.5388 33.6762C30.7349 33.6762 30.7676 33.744 30.7676 33.9306C30.7676 37.0507 30.7676 40.1538 30.7512 43.2569C30.7512 43.4434 30.7839 43.4774 30.9637 43.4774C33.9538 43.4774 36.944 43.4774 39.9342 43.4774C40.2284 43.4774 40.1957 43.5113 40.1957 43.2061C40.1957 33.5405 40.1957 23.875 40.1957 14.2095C40.1957 13.9043 40.2447 13.9213 39.9179 13.9213H24.7708C23.7578 13.9043 22.7447 13.9721 21.7316 14.1078C19.9016 14.3452 18.1532 14.9896 16.5846 15.9731C14.8689 17.0753 13.6434 18.6014 13.0715 20.6193C12.565 22.4676 12.4996 24.4177 12.8754 26.2829C13.1369 27.7752 13.8068 29.1487 14.8035 30.2509C15.7512 31.2853 16.895 31.9975 18.1859 32.5062C18.4146 32.591 18.4146 32.591 18.2839 32.8114L12.3035 42.5278C12.1074 42.833 11.9277 43.1382 11.7153 43.4774Z" fill="white"/>
<path d="M-0.00050354 70.744V70.5575C0.0321762 70.5066 0.0321762 70.4388 -0.00050354 70.371C-0.00050354 70.2862 -0.00050354 70.2014 -0.00050354 70.1336C-0.00050354 68.7431 -0.00050354 67.3356 -0.00050354 65.9452C0.0158363 65.1482 0.0485161 64.3682 0.0648559 63.5712C0.0648559 63.2151 0.0648559 62.876 0.0811958 62.5199C0.0975357 62.452 0.113876 62.3842 0.146555 62.3164C0.162895 62.1977 0.244594 62.1468 0.375313 62.1807C0.457013 62.1977 0.555052 62.2316 0.636751 62.2655C0.76747 62.3333 0.930869 62.3333 1.07793 62.2655C1.14329 62.2485 1.22499 62.2316 1.29035 62.2485C1.37205 62.2485 1.45374 62.2655 1.47008 62.1129C1.48642 61.9942 1.61714 61.9942 1.71518 61.9942C2.30342 62.0451 2.87531 62.0451 3.46355 62.062C3.79035 62.062 4.11714 62.0451 4.4276 62.0281C4.95048 61.9772 5.47335 61.9942 5.97989 62.079C7.67923 62.4012 8.49623 63.9951 8.43087 65.4025C8.39819 65.8943 8.26747 66.3691 8.05505 66.793C7.98969 66.8948 8.00603 67.0304 8.10407 67.0983C8.92107 67.9122 9.29688 68.9126 9.13348 70.0827C8.98643 71.134 8.41453 71.931 7.53218 72.4567C6.94394 72.7958 6.27401 72.9654 5.60407 72.9315C4.80342 72.9145 4.00276 72.9315 3.20211 72.9315C2.82629 72.9145 2.45048 72.9145 2.07466 72.9484C1.7642 72.9823 1.45374 72.8636 1.15963 72.9315C1.09427 72.9484 1.02891 72.8636 0.947209 72.8636C0.81649 72.8467 0.702111 72.7449 0.636751 72.9484C0.620412 73.0163 0.522372 72.9823 0.473353 72.9315C0.375313 72.8297 0.260934 72.7449 0.146555 72.6771C0.0321762 72.6262 0.0811958 72.4906 0.0648559 72.3719C0.0975357 72.2701 0.0975357 72.1684 0.0648559 72.0667C-0.00050354 71.6427 0.0648559 71.1849 -0.00050354 70.744ZM4.1008 70.5405V70.5914C4.64002 70.5914 5.17924 70.5914 5.70211 70.5914C6.11061 70.6253 6.50276 70.4388 6.7642 70.1166C6.89492 69.964 6.97662 69.7435 6.96028 69.5401C6.9276 68.9466 6.32303 68.3361 5.58773 68.387C4.9995 68.4209 4.41126 68.4379 3.80669 68.4548L2.38512 68.5226C2.28708 68.5226 2.22172 68.5226 2.22172 68.6583C2.22172 69.2009 2.22172 69.7605 2.20538 70.3031C2.20538 70.4727 2.23806 70.5405 2.4178 70.5405C2.97335 70.5405 3.52891 70.5405 4.1008 70.5405ZM3.61061 66.1826V66.1317C4.0191 66.1317 4.41126 66.1317 4.81976 66.1317C5.14656 66.1317 5.45701 66.013 5.70211 65.8095C6.02891 65.5721 6.09427 65.0973 5.84917 64.7751C5.76747 64.6564 5.65309 64.5717 5.52237 64.5208C5.22825 64.4021 4.93414 64.4869 4.64002 64.4699C4.3459 64.453 4.08446 64.5038 3.80669 64.4869C3.34917 64.4699 2.89165 64.4869 2.43414 64.4869C2.31976 64.4869 2.28708 64.5547 2.27074 64.6564C2.2544 65.0973 2.23806 65.5552 2.20538 65.996C2.18904 66.1487 2.23806 66.1995 2.38512 66.1826C2.79361 66.1826 3.20211 66.1826 3.61061 66.1826Z" fill="white"/>
<path d="M28.66 72.7624H27.3855C27.3528 72.7624 27.2875 72.7624 27.2875 72.7963C27.2221 73.0337 27.0424 72.9659 26.9116 72.898C26.7482 72.8302 26.5848 72.7963 26.4214 72.7624C26.3888 72.7454 26.3561 72.7624 26.3398 72.7793C26.2417 72.8641 26.111 72.8811 25.9966 72.8472C25.7515 72.8302 25.5064 72.8302 25.2613 72.8472C24.9672 72.8472 24.9182 72.8133 24.9182 72.508C24.9509 71.1176 25.1633 69.7271 25.1796 68.3366C25.196 66.7935 25.2777 65.2674 25.245 63.7243C25.2286 63.2325 25.2123 62.7577 25.2123 62.266C25.2286 62.0116 25.4411 61.8081 25.7025 61.8081C25.7188 61.8081 25.7515 61.8081 25.7679 61.8081C25.9476 61.859 26.1437 61.859 26.2907 61.9947C26.3234 62.0286 26.3724 61.9947 26.4214 61.9947C26.4868 61.9777 26.5685 61.9608 26.6339 61.9947C26.7809 62.0625 26.9116 62.0795 26.977 61.859C27.0097 61.7742 27.1077 61.7403 27.1567 61.8081C27.2875 61.9777 27.5489 61.9947 27.6469 62.249C27.6796 62.3508 27.8757 62.3169 27.9901 62.3169C28.66 62.2999 29.3136 62.249 29.9835 62.249C30.0652 62.249 30.1469 62.2321 30.2123 62.1812C30.2613 62.1473 30.3267 62.1303 30.392 62.1303C31.209 62.1812 32.026 62.1473 32.843 62.0455C33.0228 62.0286 33.2025 62.0286 33.3659 62.0286C33.5293 62.0286 33.611 62.1473 33.5783 62.2829C33.513 62.5373 33.6927 62.656 33.8398 62.7577C33.9868 62.8595 34.0685 62.8934 34.1012 63.0969C34.1339 63.3004 34.2319 63.4869 34.2156 63.6734C34.1992 63.8599 34.3299 63.9617 34.379 64.1143C34.4607 64.3178 34.428 64.4365 34.1992 64.4704C33.6927 64.5552 33.1862 64.6061 32.6796 64.623C32.2058 64.64 31.7482 64.6739 31.2744 64.6908C30.8005 64.7078 30.294 64.7078 29.7875 64.6908C29.3299 64.6739 28.8724 64.7078 28.4149 64.7248C28.2025 64.7248 27.9737 64.7248 27.7613 64.7078C27.6469 64.6908 27.6469 64.7417 27.6469 64.8265C27.6469 65.1826 27.6469 65.5217 27.6469 65.8778C27.6469 65.9796 27.6469 66.0304 27.794 66.0304C28.4149 66.0474 29.0195 65.9626 29.6404 66.0135C29.9835 66.0474 30.343 66.0135 30.6862 66.0644C31.0947 66.1322 31.2581 66.3187 31.2254 66.7596C31.1927 67.2005 31.2417 67.6583 31.1927 68.1162C31.16 68.5062 30.9803 68.7097 30.6045 68.6588C30.0489 68.6079 29.4933 68.6079 28.9541 68.6757C28.562 68.6927 28.1698 68.7266 27.794 68.7097C27.6633 68.7097 27.5979 68.7436 27.5979 68.8962C27.5979 69.2692 27.5652 69.6423 27.5489 70.0153C27.5489 70.134 27.5652 70.168 27.6796 70.168C28.2515 70.134 28.8071 70.1849 29.379 70.168C29.8528 70.151 30.3103 70.151 30.7842 70.2019C30.9639 70.2019 31.16 70.2019 31.3398 70.1849C31.9607 70.168 32.5979 70.1849 33.2188 70.2019C33.513 70.2188 33.8071 70.134 34.1012 70.134C34.3953 70.134 34.4443 70.2019 34.4116 70.4901C34.3626 70.7275 34.3299 70.948 34.3136 71.1854C34.2973 71.4737 34.3136 71.745 34.3463 72.0332C34.379 72.135 34.3626 72.2537 34.3136 72.3385C34.2809 72.3554 34.2809 72.4063 34.3136 72.4402C34.3626 72.4911 34.3953 72.5419 34.3626 72.6098C34.3136 72.6776 34.2319 72.7115 34.1502 72.6946C33.9378 72.6776 33.7254 72.6437 33.513 72.6267C32.794 72.5928 32.075 72.5928 31.3561 72.6267C31.1273 72.6437 30.9149 72.6267 30.6862 72.6267C30.5718 72.6098 30.4411 72.6267 30.3267 72.6946C30.2777 72.7285 30.2286 72.7285 30.1796 72.7285C29.6404 72.7285 29.1502 72.7115 28.66 72.7624Z" fill="white"/>
<path d="M49.0853 70.2512C49.6572 70.2342 50.2618 70.2173 50.8827 70.2343C51.8631 70.2682 52.8271 70.2003 53.8075 70.2512C54.1016 70.2342 54.3794 70.2173 54.6572 70.1834C54.9676 70.1664 55.033 70.2342 55.0003 70.5564C54.9513 70.7769 54.9186 71.0143 54.9023 71.2347C54.8859 71.523 54.9023 71.8113 54.9513 72.0995C54.984 72.2013 54.9676 72.303 54.9186 72.3878C54.8859 72.4387 54.9023 72.4726 54.935 72.5065C54.9676 72.5404 55.0167 72.6082 54.9676 72.6761C54.935 72.7439 54.8533 72.7778 54.7879 72.7608C54.5591 72.7439 54.3304 72.71 54.1016 72.693C53.4317 72.6591 52.7618 72.6591 52.1082 72.693C51.7977 72.71 51.4872 72.693 51.1931 72.693C51.1605 72.693 51.1114 72.6761 51.0951 72.693C50.85 72.8795 50.5722 72.7608 50.3108 72.7439C49.5591 72.71 48.8075 72.7439 48.0559 72.7778C48.0232 72.7778 47.9742 72.7608 47.9578 72.8117C47.8271 73.1169 47.631 72.9474 47.4676 72.8795C47.3042 72.7948 47.0918 72.7948 46.9284 72.8626C46.765 72.9304 46.569 72.8626 46.3892 72.8626C46.1605 72.8626 45.948 72.9304 45.7193 72.8626C45.5722 72.8287 45.5395 72.7608 45.5722 72.6082C45.6049 72.4047 45.5886 72.1843 45.6049 71.9639C45.752 70.4377 45.8663 68.8946 45.8663 67.3685C45.8663 66.1646 45.9644 64.9776 45.899 63.7736C45.8827 63.2988 45.8663 62.8071 45.8663 62.3323C45.8663 62.0779 46.0624 61.8575 46.3239 61.8575C46.3565 61.8575 46.3892 61.8575 46.4219 61.8744C46.6016 61.8914 46.7814 61.9423 46.9284 62.044C46.9611 62.0779 47.0101 62.061 47.0591 62.044C47.1408 62.027 47.2062 62.027 47.2879 62.044C47.4186 62.0949 47.5493 62.1118 47.6147 61.9083C47.631 61.8236 47.7454 61.7897 47.7944 61.8405C47.9252 62.0101 48.1866 62.027 48.2846 62.2814C48.3173 62.4001 48.5134 62.3492 48.6278 62.3492C49.2977 62.3323 49.9676 62.2814 50.6376 62.2814C50.7029 62.2814 50.7683 62.2644 50.8173 62.2305C50.8663 62.1797 50.948 62.1627 51.0134 62.1627C51.8304 62.2136 52.6474 62.1797 53.4644 62.0779C53.6441 62.061 53.8239 62.061 53.9873 62.061C54.167 62.061 54.216 62.1797 54.1997 62.3323C54.1833 62.5358 54.2977 62.7223 54.4611 62.8071C54.6082 62.841 54.7062 62.9766 54.7062 63.1462C54.7225 63.3327 54.8369 63.5362 54.8206 63.7227C54.8042 63.9093 54.9513 64.0449 55.0003 64.1975C55.0657 64.3841 55.0167 64.4858 54.8206 64.5197C54.314 64.6045 53.7912 64.6723 53.2846 64.6723C52.8271 64.6893 52.3533 64.7232 51.8957 64.7402C51.4056 64.7402 50.9154 64.7571 50.4252 64.7402C49.9676 64.7232 49.5101 64.7571 49.0526 64.7741C48.8402 64.7741 48.6114 64.7741 48.399 64.7571C48.2846 64.7402 48.2683 64.7741 48.2683 64.8758C48.2683 65.2319 48.2683 65.588 48.2683 65.9611C48.2683 66.0798 48.2846 66.0967 48.4154 66.0967C48.8565 66.1137 49.314 66.0628 49.7552 66.0628C50.2781 66.0628 50.7846 66.0798 51.3075 66.1306C51.7323 66.1646 51.8794 66.385 51.8631 66.8259C51.8467 67.2668 51.8794 67.7246 51.8304 68.1824C51.7977 68.5894 51.618 68.7759 51.2258 68.7251C50.6866 68.6742 50.131 68.6742 49.5918 68.742C49.1997 68.759 48.8075 68.7929 48.4317 68.7759C48.2846 68.7759 48.2356 68.8268 48.2356 68.9794C48.2356 69.3355 48.2193 69.6916 48.1866 70.0477C48.1703 70.2003 48.2193 70.2342 48.35 70.2173C48.5624 70.2003 48.8239 70.2173 49.0853 70.2512Z" fill="white"/>
<path d="M22.7444 72.8805C21.2574 72.9483 19.6888 72.8975 18.1202 72.9483C17.5319 72.9653 16.9601 72.9314 16.3718 72.9144C15.7836 72.8975 15.1953 72.8805 14.6071 72.8805C14.4601 72.8635 14.313 72.8466 14.1659 72.8127C14.1006 72.8127 14.0516 72.7448 14.0679 72.677V72.6601C14.0516 72.5244 14.1006 72.3718 14.1823 72.27C14.2476 72.1683 14.264 72.0496 14.215 71.9309C14.0679 71.6765 14.215 71.4391 14.1659 71.2017C14.1333 71.0322 14.1333 70.8457 14.1659 70.6591C14.1823 70.5235 14.2313 70.4726 14.3784 70.4896C14.5581 70.5065 14.7378 70.4896 14.9012 70.5235C15.13 70.5743 15.2117 70.4387 15.277 70.2522C15.6038 69.2517 15.9633 68.2512 16.2248 67.2338C16.5352 65.9959 17.0744 64.8259 17.3195 63.5541C17.3849 63.3167 17.4666 63.0793 17.5646 62.8419C17.6136 62.7063 17.7117 62.6724 17.8097 62.7232C18.0712 62.8589 18.2182 62.6724 18.398 62.5367C18.4306 62.5028 18.4633 62.4519 18.496 62.4011C18.5287 62.2993 18.6431 62.2484 18.7411 62.2993C18.7574 62.2993 18.7574 62.3163 18.7738 62.3163C18.9372 62.3841 19.1333 62.3163 19.2967 62.2823C19.5908 62.2145 19.8685 62.1128 20.13 61.9941C20.4078 61.8754 20.4568 61.9093 20.5548 62.1806C20.9143 63.3167 21.1921 64.4698 21.5352 65.6059C21.764 66.369 22.0417 67.1151 22.2868 67.8782C22.5646 68.726 22.8424 69.5908 23.1529 70.4217C23.2019 70.5404 23.2509 70.5743 23.3653 70.5574C23.447 70.5404 23.5287 70.5404 23.6267 70.5404C23.7248 70.5404 23.8391 70.5065 23.9208 70.6252C24.0025 70.7439 24.1496 70.8117 24.1333 70.9474C24.1333 71.1509 24.0842 71.3374 23.9862 71.5239C23.9372 71.5918 23.9208 71.6765 23.9535 71.7444C23.9862 71.7952 23.9862 71.8631 23.9699 71.9139C23.9045 72.0666 23.9208 72.1683 24.0842 72.2361C24.1496 72.2531 24.1823 72.3209 24.1659 72.3887C24.1659 72.4057 24.1496 72.4396 24.1333 72.4566C24.0352 72.5583 23.9535 72.677 23.8882 72.7957C23.8555 72.8635 23.7738 72.8635 23.7084 72.8635C23.4143 72.8805 23.0875 72.8975 22.7444 72.8805ZM19.2476 65.7925C19.1659 66.1316 19.0679 66.4707 18.9535 66.8099C18.7574 67.4034 18.5614 68.0138 18.3326 68.6073C18.2182 68.8956 18.1365 69.2178 18.0385 69.523C17.9404 69.8282 17.8587 70.1335 17.7444 70.4217C17.6463 70.6591 17.6463 70.6761 17.8914 70.6761C18.8065 70.693 19.7215 70.6252 20.6529 70.6761C20.9306 70.693 20.9306 70.693 20.8326 70.4217C20.3424 68.9295 19.7705 67.4542 19.3293 65.9281C19.313 65.8603 19.313 65.8094 19.2476 65.7925Z" fill="white"/>
<path d="M39.7869 65.6911C39.7543 65.7929 39.7216 65.8777 39.7052 65.9624C39.5418 66.5729 39.2804 67.1664 39.0843 67.7768C38.9046 68.3195 38.6922 68.8621 38.4961 69.4047C38.3327 69.8626 38.1693 70.3204 37.9895 70.7613C37.8425 71.0665 37.7281 71.3887 37.6301 71.7109C37.5484 72.05 37.4177 72.3722 37.3196 72.7113C37.2379 72.9657 37.1399 72.9826 36.9111 72.847C36.6497 72.6774 36.3719 72.5248 36.0941 72.3722C35.8327 72.2704 35.5222 72.2196 35.2935 72.0161L35.2771 71.9991C35.1954 71.9991 35.0974 72.05 35.0484 71.9144C35.032 71.7957 35.0484 71.677 35.1301 71.5752C35.4078 71.0156 35.6529 70.4391 35.849 69.8456C36.1758 68.9638 36.5026 68.0651 36.7641 67.1494C37.0745 66.0642 37.5484 65.0468 37.8098 63.9446C37.8915 63.5885 38.0059 63.2493 38.1366 62.9271C38.202 62.7745 38.3163 62.7067 38.4307 62.7915C38.6105 62.9441 38.7248 62.7745 38.8556 62.7236C38.9536 62.6728 39.0353 62.588 39.0843 62.4862C39.117 62.4015 39.1987 62.3506 39.2804 62.3675C39.2967 62.3675 39.3131 62.3845 39.3294 62.4015C39.4601 62.4862 39.6399 62.4354 39.7216 62.2997C39.7379 62.2658 39.7543 62.2319 39.7543 62.2149C39.7869 62.0962 39.8523 62.0962 39.9503 62.1132C40.0484 62.1301 40.1954 62.198 40.2281 61.9775C40.2445 61.8928 40.3261 61.9436 40.3915 61.9775C40.4569 62.0115 40.5222 62.0962 40.6203 62.0115C40.7673 61.8928 40.849 61.9775 40.9144 62.0962C41.0614 62.3845 41.1922 62.6728 41.3229 62.9441C41.7641 63.8767 42.1235 64.8433 42.5157 65.7929C42.7281 66.3185 42.9405 66.8272 43.1203 67.3699C43.251 67.7599 43.4144 68.1329 43.5614 68.5229C43.7902 69.1164 44.0026 69.7269 44.215 70.3373C44.3784 70.7952 44.5745 71.253 44.7706 71.6939C44.8033 71.7617 44.836 71.8465 44.8523 71.9144C44.9013 72.0161 44.8523 72.1518 44.7543 72.2026C44.7379 72.2196 44.7052 72.2196 44.6889 72.2196C44.4601 72.2705 44.2314 72.3722 43.9863 72.3552C43.9536 72.3552 43.9209 72.3552 43.8882 72.3722C43.6268 72.5418 43.3163 72.5926 43.0549 72.7452C42.9569 72.7961 42.8425 72.7792 42.7445 72.8639C42.6464 72.9487 42.5647 72.83 42.532 72.7113C42.434 72.4061 42.3523 72.0839 42.2543 71.7787C42.1235 71.3887 41.9928 70.9817 41.8458 70.5917C41.617 69.9813 41.3719 69.3708 41.1268 68.7434C41.0614 68.5569 40.9961 68.3703 40.898 68.1838C40.4405 67.4038 40.2771 66.4881 39.8686 65.6911C39.836 65.725 39.8196 65.7081 39.7869 65.6911Z" fill="white"/>
<path d="M30.7513 23.8415C30.7513 25.0115 30.7513 26.1985 30.7513 27.3855C30.7513 27.5381 30.7186 27.572 30.5715 27.572C29.0029 27.5551 27.4343 27.589 25.8656 27.5551C24.8689 27.5381 23.8885 27.3855 23.0062 26.8598C22.1238 26.3342 21.6826 25.5372 21.5356 24.5198C21.4539 23.9263 21.4866 23.3328 21.6336 22.7562C21.8787 21.8406 22.4669 21.2301 23.2513 20.7892C24.1173 20.3314 25.0813 20.1109 26.0454 20.1279C27.5323 20.1279 29.0356 20.1279 30.5225 20.1279C30.7186 20.1279 30.7513 20.1957 30.7349 20.3653C30.7513 21.5184 30.7513 22.6884 30.7513 23.8415Z" fill="white"/>
</g>
<defs>
<clipPath id="clip0_2_188">
<rect width="55" height="73" fill="white"/>
</clipPath>
</defs>
</svg>
